<svg width="24" height="24" viewBox="0 0 24 24" fill="none" xmlns="http://www.w3.org/2000/svg">
<path fill-rule="evenodd" clip-rule="evenodd" d="M5.84611 0C2.61741 0 0 2.61754 0 5.84611V18.1539C0 21.3825 2.61741 24 5.84611 24H10.7693C13.998 24 16.6154 21.3825 16.6154 18.1539V17.5383C16.6154 17.0286 16.2022 16.6152 15.6925 16.6152C15.1827 16.6152 14.7695 17.0286 14.7695 17.5383V18.1539C14.7695 20.363 12.9784 22.1538 10.7693 22.1538H5.84611C3.63696 22.1538 1.84586 20.363 1.84586 18.1539V5.84611C1.84586 3.63699 3.63696 1.84619 5.84611 1.84619H10.7693C12.9784 1.84619 14.7695 3.63699 14.7695 5.84611V6.46166C14.7695 6.97139 15.1827 7.38475 15.6925 7.38475C16.2022 7.38475 16.6154 6.97139 16.6154 6.46166V5.84611C16.6154 2.61754 13.998 0 10.7693 0H5.84611ZM20.0373 7.65538C19.6642 7.30775 19.0801 7.32847 18.7328 7.70131C18.4025 8.05569 18.4025 8.60549 18.7328 8.95987L20.8485 11.0767H8.3077C7.79793 11.0767 7.38477 11.49 7.38477 11.9998C7.38477 12.5095 7.79793 12.9229 8.3077 12.9229H20.8481L18.7311 15.0397C18.3771 15.4067 18.3874 15.9907 18.7542 16.3451C19.1122 16.6904 19.6794 16.69 20.0369 16.3446L23.7295 12.6522C24.0901 12.292 24.0901 11.7075 23.7299 11.3469L23.7295 11.3464L20.0373 7.65538Z" fill="currentColor"/>
</svg>
