<svg width="8" height="10" viewBox="0 0 8 10" fill="none" xmlns="http://www.w3.org/2000/svg">
<path fill-rule="evenodd" clip-rule="evenodd" d="M1.02877 0.628136C0.824304 0.628136 0.658569 0.845729 0.658569 1.11391C0.658569 1.38209 0.824304 1.59968 1.02877 1.59968H6.95162C7.15609 1.59968 7.32183 1.38209 7.32183 1.11391C7.32183 0.845729 7.15609 0.628136 6.95162 0.628136H1.02877ZM1.02877 3.21935C0.824304 3.21935 0.658569 3.43695 0.658569 3.70513C0.658569 3.97352 0.824304 4.1909 1.02877 4.1909H6.95162C7.15609 4.1909 7.32183 3.97331 7.32183 3.70513C7.32183 3.43674 7.15609 3.21935 6.95162 3.21935H1.02877ZM0.658569 6.29635C0.658569 6.02796 0.824304 5.81057 1.02877 5.81057H6.95162C7.15609 5.81057 7.32183 6.02817 7.32183 6.29635C7.32183 6.56453 7.15609 6.78212 6.95162 6.78212H1.02877C0.824304 6.78212 0.658569 6.56474 0.658569 6.29635ZM1.02877 8.40158C0.824304 8.40158 0.658569 8.61918 0.658569 8.88736C0.658569 9.15575 0.824304 9.37313 1.02877 9.37313H6.95162C7.15609 9.37313 7.32183 9.15554 7.32183 8.88736C7.32183 8.61896 7.15609 8.40158 6.95162 8.40158H1.02877Z" fill="currentColor"/>
</svg>
