<svg width="24" height="24" viewBox="0 0 24 24" fill="none" xmlns="http://www.w3.org/2000/svg">
<path d="M15.0457 0.923444L15.3125 0.0398469C14.8243 -0.107959 14.3094 0.168233 14.1614 0.656423C14.109 0.830661 14.109 1.01677 14.1614 1.191L15.0457 0.923444ZM0.921878 15.0464L1.19043 14.1628C0.702258 14.015 0.187288 14.2912 0.0393218 14.7794C-0.0131073 14.9536 -0.0131073 15.1398 0.0393218 15.314L0.921878 15.0464ZM14.6076 4.21563C14.6076 9.95739 9.9525 14.6116 4.21093 14.6116V16.4576C10.9725 16.4576 16.4543 10.9764 16.4543 4.21509H14.6076V4.21563ZM22.1539 11.7575C22.1539 17.4993 17.4988 22.1535 11.7572 22.1535V24C18.5188 24 24 18.5188 24 11.7575H22.1539ZM14.7771 1.80704C19.1585 3.13891 22.1533 7.17875 22.1533 11.7575H24C24 6.36528 20.4727 1.60691 15.3125 0.0393074L14.7771 1.80704ZM14.162 1.19154C14.4585 2.17062 14.6088 3.18854 14.6076 4.21185H16.4537C16.4543 3.00675 16.2772 1.80812 15.9283 0.654805L14.162 1.19154ZM11.7566 22.154C7.17725 22.1535 3.1373 19.1591 1.8056 14.7783L0.0381565 15.3135C1.60579 20.4726 6.36402 24 11.7566 24V22.154ZM4.21035 14.6079C3.18681 14.6089 2.16911 14.459 1.18985 14.1623L0.653325 15.9284C1.80618 16.2769 3.00448 16.4538 4.20918 16.4527L4.21035 14.6079Z" fill="white"/>
</svg>
