<svg width="24" height="24" viewBox="0 0 24 24" fill="none" xmlns="http://www.w3.org/2000/svg">
<path d="M20.966 16.6645C20.639 16.3374 20.1086 16.3374 19.7817 16.6645C19.4548 16.9916 19.4548 17.5218 19.7817 17.8489L20.966 16.6645ZM17.8487 19.7826C17.5217 19.4554 16.9914 19.4554 16.6644 19.7826C16.3375 20.1097 16.3375 20.6399 16.6644 20.967L17.8487 19.7826ZM1.67468 10.3268C1.67468 5.54843 5.54844 1.67457 10.3267 1.67457V0C4.6237 0 0 4.6236 0 10.3268H1.67468ZM10.3267 1.67457C15.1049 1.67457 18.9787 5.54843 18.9787 10.3268H20.6533C20.6533 4.6236 16.0302 0 10.3267 0V1.67457ZM18.9787 10.3268C18.9787 15.1052 15.1049 18.979 10.3267 18.979V20.6536C16.0296 20.6536 20.6533 16.03 20.6533 10.3268H18.9787ZM10.3267 18.979C5.54844 18.979 1.67468 15.1052 1.67468 10.3268H0C0 16.03 4.62311 20.6536 10.3267 20.6536V18.979ZM21.9271 21.927C21.3937 22.461 20.5286 22.4615 19.9947 21.9281C19.9941 21.9275 19.9941 21.9275 19.9935 21.927L18.8104 23.1092C19.9983 24.2969 21.9241 24.2969 23.1119 23.1092L21.9271 21.927ZM21.9271 19.9933C22.4611 20.5268 22.4616 21.3918 21.9283 21.9259C21.9277 21.9264 21.9277 21.9264 21.9271 21.927L23.1096 23.1092C24.2968 21.9215 24.2968 19.9955 23.1096 18.8078L21.9271 19.9933ZM19.7823 17.8489L21.9277 19.9944L23.109 18.81L20.9654 16.6645L19.7823 17.8489ZM19.9947 21.927L17.8493 19.7826L16.665 20.9659L18.8104 23.1092L19.9947 21.927Z" fill="#ED8F44"/>
</svg>
