<svg width="20" height="20" viewBox="0 0 20 20" fill="none" xmlns="http://www.w3.org/2000/svg">
<path d="M8.15742 1.62337C8.61673 0.579851 9.81392 0.115455 10.8312 0.586201C11.2799 0.794058 11.6398 1.16278 11.8421 1.62337L13.1451 4.43726C13.4338 5.07691 14.0138 5.52692 14.6924 5.63741L17.6054 6.0891C18.778 6.31305 19.5518 7.47001 19.3334 8.6727C19.2542 9.10916 19.0489 9.5109 18.7445 9.82628L16.6372 12.0179C16.1499 12.531 15.9302 13.2515 16.0462 13.9576L16.5436 17.0513C16.7672 18.2028 16.0382 19.3225 14.9155 19.5519C14.4558 19.6459 13.9787 19.5773 13.5621 19.3572L10.9573 17.8967C10.3617 17.561 9.64035 17.561 9.04472 17.8967L6.4408 19.361C5.42269 19.8982 4.17301 19.4876 3.64935 18.4432C3.43472 18.0157 3.36783 17.5263 3.45969 17.0551L3.95711 13.9614C4.07268 13.2553 3.85339 12.5348 3.36614 12.0217L1.25667 9.82628C0.417202 8.95718 0.423552 7.55426 1.27106 6.6932C1.5784 6.38078 1.97041 6.17038 2.39586 6.0891L5.30881 5.63741C5.98699 5.52692 6.56696 5.07691 6.85525 4.43726L8.15742 1.62337Z" fill="currentColor"/>
</svg>
