<svg width="24" height="24" viewBox="0 0 24 24" fill="none" xmlns="http://www.w3.org/2000/svg">
<path d="M12.8373 0.837086C12.8373 0.37457 12.4624 0 12 0C11.5376 0 11.1627 0.37457 11.1627 0.837086H12.8373ZM11.1627 1.95338C11.1627 2.41589 11.5376 2.79046 12 2.79046C12.4624 2.79046 12.8373 2.41589 12.8373 1.95338H11.1627ZM12.8373 22.0466C12.8373 21.5841 12.4624 21.2095 12 21.2095C11.5376 21.2095 11.1627 21.5841 11.1627 22.0466H12.8373ZM11.1627 23.1629C11.1627 23.6254 11.5376 24 12 24C12.4624 24 12.8373 23.6254 12.8373 23.1629H11.1627ZM20.4848 4.69828C20.8117 4.37139 20.8117 3.84106 20.4848 3.51364C20.1579 3.18675 19.6277 3.18675 19.3003 3.51364L20.4848 4.69828ZM18.5115 4.30305C18.1845 4.62993 18.1845 5.16026 18.5115 5.48768C18.8384 5.81457 19.3685 5.81457 19.696 5.48768L18.5115 4.30305ZM5.48747 19.6954C5.8144 19.3685 5.8144 18.8381 5.48747 18.5107C5.16053 18.1838 4.6304 18.1838 4.30293 18.5107L5.48747 19.6954ZM3.51413 19.3007C3.1872 19.6275 3.1872 20.1579 3.51413 20.4853C3.84107 20.8122 4.3712 20.8122 4.69867 20.4853L3.51413 19.3007ZM23.1627 12.8371C23.6251 12.8371 24 12.4625 24 12C24 11.5375 23.6251 11.1629 23.1627 11.1629V12.8371ZM22.0464 11.1629C21.584 11.1629 21.2091 11.5375 21.2091 12C21.2091 12.4625 21.584 12.8371 22.0464 12.8371V11.1629ZM1.9536 12.8371C2.416 12.8371 2.79093 12.4625 2.79093 12C2.79093 11.5375 2.416 11.1629 1.9536 11.1629V12.8371ZM0.837333 11.1629C0.374933 11.1629 0 11.5375 0 12C0 12.4625 0.374933 12.8371 0.837333 12.8371V11.1629ZM19.3013 20.4848C19.6283 20.8117 20.1584 20.8117 20.4859 20.4848C20.8128 20.1579 20.8128 19.6276 20.4859 19.3001L19.3013 20.4848ZM19.6965 18.5113C19.3696 18.1844 18.8395 18.1844 18.512 18.5113C18.1845 18.8381 18.1851 19.3685 18.512 19.6959L19.6965 18.5113ZM4.30453 5.48768C4.64267 5.80291 5.1728 5.78437 5.488 5.44583C5.78773 5.12424 5.78773 4.6257 5.488 4.30411L4.30453 5.48768ZM4.69973 3.51417C4.3728 3.18728 3.84267 3.18728 3.5152 3.51417C3.18827 3.84106 3.18827 4.37139 3.5152 4.69881L4.69973 3.51417ZM17.8603 12C17.8603 15.2366 15.2363 17.8607 12 17.8607V19.5348C16.1616 19.5348 19.5349 16.1616 19.5349 12H17.8603ZM12 17.8607C8.7632 17.8607 6.13973 15.2371 6.13973 12H4.46507C4.46507 16.1616 7.8384 19.5348 12 19.5348V17.8607ZM6.13973 12C6.13973 8.76344 8.76373 6.13934 12 6.13934V4.46517C7.8384 4.46517 4.46507 7.83841 4.46507 12H6.13973ZM12 6.13934C15.2368 6.13934 17.8603 8.76291 17.8603 12H19.5349C19.5349 7.83841 16.1616 4.46517 12 4.46517V6.13934ZM11.1627 0.837086V1.95338H12.8373V0.837086H11.1627ZM11.1627 22.0466V23.1629H12.8373V22.0466H11.1627ZM19.3013 3.51629L18.512 4.3057L19.6965 5.49033L20.4859 4.70093L19.3013 3.51629ZM4.30453 18.5123L3.5152 19.3017L4.69973 20.4864L5.48907 19.697L4.30453 18.5123ZM23.1627 11.1629H22.0464V12.8371H23.1627V11.1629ZM1.9536 11.1629H0.837333V12.8371H1.9536V11.1629ZM20.4837 19.3017L19.6944 18.5123L18.5099 19.697L19.2992 20.4864L20.4837 19.3017ZM5.48747 4.30464L4.69813 3.51523L3.51467 4.69828L4.304 5.48768L5.48747 4.30464Z" fill="#251D16"/>
</svg>
