<svg width="24" height="24" viewBox="0 0 24 24" fill="none" xmlns="http://www.w3.org/2000/svg">
<path d="M17.0324 5.84535C17.0324 8.054 14.7794 9.84486 12 9.84486V11.6907C16.062 11.6907 19.3547 9.07353 19.3547 5.84535H17.0324ZM12 9.84486C9.22058 9.84486 6.96763 8.054 6.96763 5.84535H4.64532C4.64532 9.07353 7.93803 11.6907 12 11.6907V9.84486ZM6.96763 5.84535C6.96763 3.63671 9.22058 1.84585 12 1.84585V0C7.93803 0 4.64532 2.61718 4.64532 5.84535H6.96763ZM12 1.84585C14.7794 1.84585 17.0324 3.63671 17.0324 5.84535H19.3547C19.3547 2.61718 16.062 0 12 0V1.84585ZM21.6777 18.7668C21.6777 19.4179 20.9827 20.257 19.1445 20.9821C16.9034 21.792 14.4617 22.1918 12 22.1512V23.997C14.821 24.0417 17.6185 23.5787 20.1829 22.6435C22.2673 21.8151 24 20.4996 24 18.7719L21.6777 18.7668ZM12 22.1507C9.53896 22.1928 7.09734 21.7951 4.85549 20.9867C3.01734 20.257 2.32231 19.4179 2.32231 18.7668H0C0 20.4898 1.73133 21.809 3.81711 22.6384C6.38081 23.5757 9.17896 24.0402 12 23.997V22.1507ZM2.32231 18.7668C2.32231 18.1157 3.01734 17.2776 4.85549 16.5515C7.09665 15.7416 9.53827 15.3418 12 15.3824V13.5366C9.17896 13.4918 6.3815 13.9549 3.81711 14.8901C1.73133 15.7231 0 17.0386 0 18.7668H2.32231ZM12 15.3824C14.461 15.3403 16.9027 15.738 19.1445 16.5463C20.9827 17.2771 21.6777 18.1152 21.6777 18.7663H24C24 17.0433 22.2687 15.7241 20.1829 14.8947C17.6192 13.9574 14.821 13.4929 12 13.536V15.3824Z" fill="currentColor"/>
</svg>
