<?xml version="1.0" encoding="utf-8"?>
<!-- Generator: Adobe Illustrator 27.4.1, SVG Export Plug-In . SVG Version: 6.00 Build 0)  -->
<svg version="1.1" id="Layer_1" xmlns="http://www.w3.org/2000/svg" xmlns:xlink="http://www.w3.org/1999/xlink" x="0px" y="0px"
	 viewBox="0 0 500 500" style="enable-background:new 0 0 500 500;" xml:space="preserve">
<style type="text/css">
	.st0{fill:#F59931;}
	.st1{fill:#E18526;}
	.st2{fill:#8D5422;}
</style>
<g>
	<path class="st0" d="M250.67,217.69c23.72-28.49,55.12-33.2,89.39-27.75c9.97,1.59,11.61,4.09,11.61,14.61
		c0,37.31,0,74.63,0,111.96c0,9.92-1.04,11.36-10.43,13.24c-31.07,6.2-57.8,21.85-82.99,40.64c-7.22,5.43-8.84,5.13-16.33-0.2
		c-9.78-6.97-19.89-13.46-30.03-19.84c-16.81-10.56-35.46-17.65-54.91-20.88c-6.04-1.07-8.69-4.81-8.67-10.91
		c0-38.45,0-76.91,0-115.38c0-6.03,2.14-10.91,8.36-12.25c24.93-5.36,49.39-4.74,71.96,8.7
		C236.54,204.4,243.06,211.32,250.67,217.69z"/>
	<path class="st1" d="M126.83,265.79c0,13.44,0,26.88,0,40.32c0,7.86-1.76,9.47-9.46,9.7c-27.74,0.82-44.19-15.55-44.19-43.99
		c0-10.68,0-21.38,0-32.11c0-19.37,9.83-33.6,27.62-39.68c1.57-0.38,2.98-1.26,4.03-2.52c1.05-1.26,1.69-2.82,1.82-4.47
		c6.14-30.2,21.27-57.69,43.28-78.63c22.01-20.94,49.81-34.3,79.54-38.22c33.04-4.71,66.65,2.31,95.29,19.92
		c28.64,17.61,50.59,44.75,62.23,76.94c2.13,5.98,3.85,12.11,5.13,18.35c0.25,2.01,1.07,3.9,2.35,5.44
		c1.28,1.53,2.98,2.65,4.87,3.19c18.28,6.6,27.45,20.43,27.48,40.44c0,12.08,0,24.15,0,36.23c0,22.91-19.15,42.5-47.44,38.81
		c-5.44-0.72-6.16-4.96-6.16-9.7c0-23.01-0.58-46.02,0-68.99c1.9-63.78-48.67-120.69-110.18-127.48
		c-68.06-7.44-130.21,43.52-135.8,113.45c-1.13,14.23-0.17,28.67-0.17,43H126.83z"/>
	<path class="st2" d="M127.49,337.13c5.37,0.97,10.68,2.3,15.89,3.97c25.98,9.5,52.36,18.1,76.08,33.1
		c7.22,4.64,14.74,9.22,21.82,14.26c2.5,2.11,5.63,3.27,8.86,3.27s6.36-1.15,8.86-3.27c26.66-19.65,56.38-34.48,87.88-43.84
		c7.37-2.18,14.59-4.96,22.06-6.79c10.38-2.48,15.73,1.39,17.7,11.8c1.83,9.6-2.53,16.32-12.26,18.18
		c-32.7,6.05-63.84,18.94-91.51,37.87c-6.43,4.41-12.6,9.25-18.69,14.11c-8.79,7.02-19.27,7.44-28.03,0.32
		c-32.4-26.75-70.79-44.72-111.67-52.27c-8.14-1.54-12.26-7.79-11.42-16.42C113.91,342.78,118.38,337.2,127.49,337.13z"/>
</g>
</svg>
